<?xml version="1.0" standalone="no"?>
<!DOCTYPE svg PUBLIC "-//W3C//DTD SVG 20010904//EN"
 "http://www.w3.org/TR/2001/REC-SVG-20010904/DTD/svg10.dtd">
<svg version="1.0" xmlns="http://www.w3.org/2000/svg"
 width="700.000000pt" height="700.000000pt" viewBox="0 0 700.000000 700.000000"
 preserveAspectRatio="xMidYMid meet">
<metadata>
Created by potrace 1.14, written by Peter Selinger 2001-2017
</metadata>
<g transform="translate(0.000000,700.000000) scale(0.100000,-0.100000)"
fill="#000000" stroke="none">
<path d="M3978 6855 c-2 -2 -23 -5 -48 -8 -167 -22 -381 -132 -540 -279 -49
-45 -50 -45 80 1 103 36 157 45 275 44 250 -2 396 -158 356 -382 -20 -109 -99
-257 -201 -374 l-21 -24 -102 58 c-134 78 -314 146 -432 164 -16 3 -57 9 -90
14 -107 17 -355 6 -497 -23 -114 -22 -315 -79 -387 -108 -14 -6 -30 -12 -36
-14 -100 -28 -319 -130 -440 -204 -75 -45 -247 -166 -280 -197 -12 -10 -45
-38 -75 -63 -56 -45 -195 -166 -262 -229 -135 -124 -315 -249 -426 -295 -122
-51 -273 -73 -386 -56 -63 9 -60 -5 17 -83 111 -112 234 -148 397 -117 29 6
55 8 58 6 2 -3 -18 -26 -45 -53 -179 -178 -346 -419 -430 -624 -30 -72 -61
-159 -68 -189 -39 -171 -52 -286 -48 -425 l3 -96 -39 -42 c-63 -68 -134 -98
-243 -101 -32 0 -58 -3 -58 -5 0 -5 35 -37 110 -100 67 -56 161 -106 217 -117
36 -7 35 -4 62 -134 11 -52 34 -151 51 -220 104 -422 108 -585 20 -759 -16
-33 -34 -62 -40 -66 -14 -9 -12 -25 2 -20 7 2 29 6 48 9 19 3 58 10 85 15 28
6 64 12 80 15 39 5 104 16 132 22 20 4 21 1 19 -77 -2 -74 10 -173 29 -224 36
-103 119 -207 219 -273 53 -36 209 -112 269 -131 20 -7 37 -18 38 -24 0 -7 3
-28 5 -47 18 -126 4 -267 -36 -385 -17 -50 -17 -58 0 -57 64 3 193 24 290 47
20 4 136 48 182 68 l37 17 50 -68 c97 -128 168 -307 173 -438 1 -30 4 -54 5
-54 2 0 36 16 76 36 83 42 162 94 265 175 l72 57 93 -25 c99 -26 294 -68 367
-78 25 -3 59 -8 75 -11 145 -22 251 -28 465 -28 265 0 421 15 658 60 12 2 34
6 50 9 15 3 32 7 39 10 6 2 38 -18 72 -45 86 -69 131 -89 349 -153 28 -8 52
-12 53 -9 0 4 2 23 4 43 10 135 46 244 138 415 l16 32 98 -40 c154 -62 253
-85 407 -94 l88 -6 -30 45 c-52 75 -77 162 -77 266 0 39 3 44 25 48 24 3 109
19 156 29 12 2 53 13 90 25 232 70 377 207 415 389 11 52 7 220 -6 280 -5 21
1 29 31 50 68 45 193 192 230 269 11 23 19 30 24 21 14 -22 10 -264 -5 -321
-8 -30 -15 -56 -15 -58 0 -3 12 6 26 20 38 36 110 148 149 232 58 126 91 257
110 436 4 30 19 79 34 110 65 129 86 256 85 526 0 138 -9 299 -19 354 -1 9 -6
41 -10 71 -22 178 -95 490 -144 619 -11 30 -19 56 -18 57 1 2 34 -6 72 -17
126 -35 235 -20 346 47 68 41 91 64 63 64 -34 0 -137 56 -224 120 -126 94
-270 245 -410 430 -239 317 -492 599 -685 761 -22 19 -49 42 -60 53 -11 10
-56 46 -100 81 -520 406 -1038 537 -1467 369 -32 -12 -58 -21 -58 -19 0 1 30
21 66 44 206 129 355 294 411 453 91 259 -85 487 -386 501 -44 2 -82 3 -83 2z
m-865 -3282 c4 -64 -1 -451 -7 -498 -2 -16 -7 -43 -9 -60 -3 -16 -9 -50 -12
-75 -4 -25 -9 -54 -11 -65 -2 -11 -7 -33 -10 -50 -14 -79 -59 -244 -103 -372
l-48 -141 26 4 c164 27 288 77 385 157 l48 40 -6 -45 c-13 -99 -66 -224 -137
-330 -22 -31 -39 -59 -39 -61 0 -4 33 3 184 38 122 29 358 138 471 219 204
147 361 352 455 596 43 109 80 296 84 412 1 62 12 61 21 0 3 -26 8 -61 11 -77
3 -17 7 -113 9 -215 3 -160 -1 -233 -19 -335 -11 -61 -59 -219 -86 -285 -16
-40 -30 -74 -30 -76 0 -7 109 35 165 64 159 82 277 198 349 345 15 32 30 56
33 54 8 -9 25 -142 26 -217 3 -103 -9 -208 -38 -347 -15 -72 -10 -77 51 -43
138 78 304 245 404 408 18 29 34 52 35 50 5 -5 14 -95 22 -218 13 -221 7 -629
-12 -700 -2 -8 -7 -35 -10 -60 -11 -79 -55 -233 -88 -305 -18 -38 -53 -98 -79
-133 -27 -35 -48 -64 -48 -66 0 -5 122 7 199 20 55 9 203 64 243 90 21 13 41
24 44 24 11 0 96 71 143 119 56 58 117 152 127 194 6 28 8 29 14 12 11 -29 4
-231 -9 -289 -27 -117 -100 -215 -195 -263 -97 -49 -167 -63 -323 -63 -101 -1
-103 -1 -148 -35 -130 -99 -308 -203 -500 -290 -84 -39 -379 -140 -430 -148
-16 -3 -37 -8 -45 -11 -8 -3 -28 -8 -45 -11 -64 -12 -252 -44 -290 -49 -150
-20 -462 -26 -640 -12 -87 6 -109 9 -195 21 -22 3 -59 8 -82 11 -24 3 -69 12
-101 19 -31 7 -60 13 -62 14 -88 7 -374 91 -560 164 -109 42 -344 162 -433
221 -96 63 -237 180 -284 237 -34 40 -44 46 -103 57 -328 62 -501 278 -490
614 2 55 5 102 8 104 3 3 28 -30 57 -73 181 -267 371 -419 613 -491 l68 -20
-22 36 c-87 146 -136 269 -165 414 -29 147 -24 435 11 569 3 14 19 33 34 42
48 28 198 144 257 199 127 117 249 249 344 373 34 44 64 82 67 85 8 9 -9 -71
-33 -152 -29 -99 -90 -228 -144 -307 -23 -35 -40 -64 -38 -67 11 -10 203 78
313 144 258 153 494 419 702 792 70 125 85 150 93 150 4 0 10 -26 13 -57z"/>
</g>
</svg>
