<?xml version="1.0" standalone="no"?>
<!DOCTYPE svg PUBLIC "-//W3C//DTD SVG 20010904//EN"
 "http://www.w3.org/TR/2001/REC-SVG-20010904/DTD/svg10.dtd">
<svg version="1.0" xmlns="http://www.w3.org/2000/svg"
 width="512.000000pt" height="512.000000pt" viewBox="0 0 512.000000 512.000000"
 preserveAspectRatio="xMidYMid meet">
<metadata>
Created by potrace 1.14, written by Peter Selinger 2001-2017
</metadata>
<g transform="translate(0.000000,512.000000) scale(0.100000,-0.100000)"
fill="#000000" stroke="none">
<path d="M600 3980 l0 -1042 303 5 c334 5 364 10 494 71 103 49 197 143 245
246 63 133 63 130 63 725 0 493 -2 546 -18 605 -57 201 -204 346 -412 406 -49
14 -116 18 -367 21 l-308 5 0 -1042z m613 726 c68 -33 119 -89 149 -165 23
-56 23 -60 23 -556 0 -562 0 -559 -74 -653 -63 -78 -156 -112 -312 -112 l-79
0 0 761 0 761 118 -4 c104 -3 125 -7 175 -32z"/>
<path d="M2454 4431 c-228 -36 -376 -185 -420 -422 -13 -66 -15 -139 -12 -373
4 -266 6 -297 26 -357 56 -170 169 -289 320 -336 80 -25 294 -25 374 0 138 43
253 155 307 298 36 95 43 179 39 484 -4 242 -8 299 -22 345 -57 176 -167 292
-323 340 -72 22 -215 32 -289 21z m281 -140 c98 -43 163 -118 207 -237 19 -54
22 -83 26 -325 2 -167 0 -294 -7 -340 -23 -154 -116 -282 -239 -330 -82 -32
-252 -32 -334 0 -123 48 -216 176 -239 330 -7 46 -9 172 -7 335 4 233 7 268
26 327 38 115 115 202 217 245 86 36 264 33 350 -5z"/>
<path d="M3457 4414 c-11 -11 -8 -926 3 -1031 29 -276 186 -443 432 -460 194
-14 351 67 436 224 l31 58 1 -132 0 -133 60 0 60 0 -2 738 -3 737 -55 0 -55 0
-6 -525 c-6 -560 -6 -555 -59 -660 -51 -99 -123 -158 -225 -185 -190 -49 -362
23 -445 185 -53 105 -53 100 -59 660 l-6 525 -50 3 c-28 2 -54 0 -58 -4z"/>
<path d="M440 2735 l0 -75 705 0 705 0 0 75 0 75 -705 0 -705 0 0 -75z"/>
<path d="M2387 2205 c-193 -49 -317 -177 -374 -385 -16 -59 -18 -120 -18 -660
0 -537 2 -601 18 -660 41 -151 133 -275 252 -337 114 -60 290 -79 443 -47 196
40 332 175 389 384 16 59 18 122 18 660 0 650 0 644 -60 775 -56 121 -144 202
-272 252 -59 22 -87 26 -203 29 -95 3 -152 -1 -193 -11z m278 -287 c57 -30 97
-90 121 -183 20 -72 20 -1065 0 -1146 -18 -77 -59 -144 -108 -177 -37 -24 -51
-27 -123 -27 -72 0 -86 3 -123 27 -49 33 -85 92 -106 173 -14 50 -16 141 -16
572 0 341 4 530 11 565 20 94 64 164 124 196 61 32 159 32 220 0z"/>
<path d="M3835 2214 c-129 -27 -193 -60 -272 -139 -79 -80 -128 -178 -149
-300 -13 -72 -15 -184 -11 -668 3 -416 7 -596 16 -632 7 -27 32 -91 57 -141
51 -107 114 -170 204 -206 64 -26 208 -31 276 -11 97 30 183 116 230 231 l24
57 0 -142 0 -143 150 0 150 0 0 575 0 575 -275 0 -275 0 0 -135 0 -135 116 0
117 0 -6 -197 c-5 -214 -17 -276 -64 -345 -61 -89 -203 -104 -299 -31 -43 32
-80 106 -94 183 -7 44 -10 234 -8 590 3 511 4 527 25 583 42 111 106 159 211
158 99 0 158 -34 198 -113 14 -28 28 -75 31 -104 l6 -54 158 0 159 0 0 48 c0
58 -28 169 -60 236 -13 27 -51 78 -83 113 -66 70 -160 122 -255 142 -50 10
-234 13 -277 5z"/>
<path d="M682 1163 l3 -1038 513 -3 512 -2 0 140 0 140 -350 0 -350 0 0 900 0
900 -165 0 -165 0 2 -1037z"/>
</g>
</svg>
