<?xml version="1.0" encoding="UTF-8" standalone="no"?>
<!DOCTYPE svg PUBLIC "-//W3C//DTD SVG 1.1//EN" "http://www.w3.org/Graphics/SVG/1.1/DTD/svg11.dtd">
<svg width="100%" height="100%" viewBox="0 0 1292 784" version="1.1" xmlns="http://www.w3.org/2000/svg" xmlns:xlink="http://www.w3.org/1999/xlink" xml:space="preserve" xmlns:serif="http://www.serif.com/" style="fill-rule:evenodd;clip-rule:evenodd;stroke-linecap:round;stroke-linejoin:round;stroke-miterlimit:1.5;">
    <path d="M228.375,369.616L254.339,471.834L153.466,443.854L228.375,369.616Z" style="fill:none;stroke:white;stroke-opacity:0.05;stroke-width:13.98px;"/>
    <path d="M1224.97,164.033L1131.06,116.036L1218.68,58.756L1224.97,164.033Z" style="fill:none;stroke:white;stroke-opacity:0.05;stroke-width:13.98px;"/>
    <path d="M548.621,501.669L454.711,453.672L542.331,396.392L548.621,501.669Z" style="fill:none;stroke:white;stroke-opacity:0.05;stroke-width:13.98px;"/>
    <path d="M1215.27,449.262L1263.54,497.534L1215.27,545.806L1167,497.534L1215.27,449.262Z" style="fill:none;stroke:white;stroke-opacity:0.05;stroke-width:13.98px;"/>
    <path d="M1030.71,631.294L1037.28,733.675L934.902,740.244L928.333,637.863L1030.71,631.294Z" style="fill:none;stroke:white;stroke-opacity:0.05;stroke-width:13.98px;"/>
    <path d="M194.217,632.486L177.438,698.659L111.265,681.88L128.044,615.707L194.217,632.486Z" style="fill:none;stroke:white;stroke-opacity:0.05;stroke-width:13.98px;"/>
    <path d="M507.471,84.424L571.466,150.265L479.756,145.839L415.76,79.998L507.471,84.424Z" style="fill:none;stroke:white;stroke-opacity:0.05;stroke-width:13.98px;"/>
    <path d="M708.653,215.869L803.095,235.457L738.103,306.725L643.662,287.136L708.653,215.869Z" style="fill:none;stroke:white;stroke-opacity:0.05;stroke-width:13.98px;"/>
    <circle cx="220.969" cy="53.375" r="33.44" style="fill:none;stroke:white;stroke-opacity:0.05;stroke-width:13.98px;"/>
    <circle cx="1047.26" cy="231.362" r="33.44" style="fill:none;stroke:white;stroke-opacity:0.05;stroke-width:13.98px;"/>
    <circle cx="409.744" cy="690.893" r="50.699" style="fill:none;stroke:white;stroke-opacity:0.05;stroke-width:13.98px;"/>
    <path d="M660.967,608.112L781.771,698.03L635.554,756.547L660.967,608.112Z" style="fill:none;stroke:white;stroke-opacity:0.05;stroke-width:13.98px;"/>
    <circle cx="801.315" cy="68.477" r="61.486" style="fill:none;stroke:white;stroke-opacity:0.05;stroke-width:13.98px;"/>
    <circle cx="917.007" cy="437.126" r="70.925" style="fill:none;stroke:white;stroke-opacity:0.05;stroke-width:13.98px;"/>
    <g opacity="0.05">
        <path d="M6.991,229.598L81.34,167.168" style="fill:none;stroke:white;stroke-width:13.98px;"/>
        <path d="M39.143,267.889L113.493,205.46" style="fill:none;stroke:white;stroke-width:13.98px;"/>
    </g>
    <g opacity="0.05">
        <path d="M1163.1,280.039L1256.52,253.612" style="fill:none;stroke:white;stroke-width:13.98px;"/>
        <path d="M1176.71,328.151L1270.13,301.723" style="fill:none;stroke:white;stroke-width:13.98px;"/>
    </g>
    <g opacity="0.05">
        <path d="M1174.4,655.314L1284.14,724.669" style="fill:none;stroke:white;stroke-width:13.98px;"/>
        <path d="M1143.68,706.832L1253.42,776.187" style="fill:none;stroke:white;stroke-width:13.98px;"/>
    </g>
</svg>
