<?xml version="1.0" encoding="UTF-8" standalone="no"?>
<!DOCTYPE svg PUBLIC "-//W3C//DTD SVG 1.1//EN" "http://www.w3.org/Graphics/SVG/1.1/DTD/svg11.dtd">
<svg width="100%" height="100%" viewBox="0 0 800 800" version="1.1" xmlns="http://www.w3.org/2000/svg" xmlns:xlink="http://www.w3.org/1999/xlink" xml:space="preserve" xmlns:serif="http://www.serif.com/" style="fill-rule:evenodd;clip-rule:evenodd;stroke-linejoin:round;stroke-miterlimit:2;">
    <g id="图层1" transform="matrix(1.33313,0,0,1.33313,-121.493,-129.649)">
        <path d="M454.069,666.691C394.975,679.88 345.413,673.76 302.748,661.407C290.995,671.43 280.558,678.96 267.306,684.649C267.331,667.368 260.575,651.294 247.534,636.413C234.135,643.577 218.93,647.128 202.332,647.892C208.518,633.822 209.518,619.447 206.637,604.843C170.825,592.523 156.11,575.586 159.765,542.999L126.926,548.726C147.811,520.374 130.788,490.9 123.126,446.361C109.244,444.304 103.502,437.663 91.134,426.858C104.523,427.979 114.799,424.07 121.256,413.991C117.326,371.911 134.178,332.168 172.915,294.888C152.749,300.423 136.843,295.783 126.278,278.386C188.469,289.866 208.841,216.808 289.478,190.217C338.104,170.907 383.156,169.849 423.248,197.474C468.094,149.119 431.738,112.843 377.177,138.615C448.438,67.543 527.305,142.6 427.293,197.514C515.273,155.33 603.977,259.361 636.755,304.932C655.963,331.638 684.237,352.265 691.224,348.83C681.819,358.056 668.235,365.162 647.262,356.592C663.732,397.934 672.634,476.781 654.485,501.069C652.406,530.39 644.294,550.866 628.438,567.299C634.144,554.692 631.942,543.661 631.404,530.761C626.916,539.124 617.905,553.024 606.25,559.72C614.01,593.384 600.852,617.666 548.161,624.215C549.028,633.313 547.547,642.134 557.558,654.331C540.726,655.156 524.258,650.666 506.982,642.602C498.224,657.085 492.663,673.182 493.683,684.999C479.633,681.383 467.23,679.641 454.069,666.691ZM594.297,552.068C595.58,558.901 577.415,595.481 527.424,595.748C550.216,574.515 552.647,526.433 547.007,467.682C536.535,486.67 519.145,504.241 503.713,510.366C507.642,491.954 510.463,473.143 505.503,454.732C496.626,477.193 479.827,489.467 458.506,495.928C469.123,472.333 475.598,447.708 467.323,403C467.269,451.216 440.691,506.46 363.901,519.731C373.152,507.964 378.966,495.434 380.216,481.889C371.943,490.118 359.66,496.98 340.708,498.979C354.931,462.933 361.683,425.109 357.239,384.618C335.96,420.849 317.35,460.154 260.752,480.058C272.266,464.873 278.268,449.136 280.893,433.061C262.531,458.578 242.387,478.304 220.469,492.265C213.602,524.908 217.315,554.905 235.338,581.325C203.087,574.059 187.316,553.761 171.956,530.493C167.442,561.753 178.38,588.481 218.741,593.905C260.688,647.726 425.734,697.95 540.742,608.978C591.615,612.707 597.749,585.098 594.297,552.068Z" style="fill:white;"/>
    </g>
</svg>
